<mxfile host="app.diagrams.net" modified="2023-11-20T15:49:39.467Z" agent="Mozilla/5.0 (Windows NT 10.0; Win64; x64; rv:109.0) Gecko/20100101 Firefox/119.0" etag="xA2M__zXL7w2SCFEF-HG" version="22.1.3" type="github">
  <diagram name="Page-1" id="_-mKvCh66bsAZR7UHeLR">
    <mxGraphModel dx="520" dy="565" grid="1" gridSize="10" guides="1" tooltips="1" connect="1" arrows="1" fold="1" page="1" pageScale="1" pageWidth="827" pageHeight="1169" math="0" shadow="0">
      <root>
        <mxCell id="0" />
        <mxCell id="1" parent="0" />
        <mxCell id="zPSNQGfP3I4R5FUN_kxQ-14" style="edgeStyle=orthogonalEdgeStyle;rounded=0;orthogonalLoop=1;jettySize=auto;html=1;" edge="1" parent="1" source="zPSNQGfP3I4R5FUN_kxQ-1" target="zPSNQGfP3I4R5FUN_kxQ-3">
          <mxGeometry relative="1" as="geometry" />
        </mxCell>
        <mxCell id="zPSNQGfP3I4R5FUN_kxQ-1" value="Admin" style="shape=umlActor;verticalLabelPosition=bottom;verticalAlign=top;html=1;outlineConnect=0;" vertex="1" parent="1">
          <mxGeometry x="80" y="30" width="30" height="60" as="geometry" />
        </mxCell>
        <mxCell id="zPSNQGfP3I4R5FUN_kxQ-11" style="edgeStyle=orthogonalEdgeStyle;rounded=0;orthogonalLoop=1;jettySize=auto;html=1;entryX=0;entryY=0.5;entryDx=0;entryDy=0;" edge="1" parent="1" source="zPSNQGfP3I4R5FUN_kxQ-2" target="zPSNQGfP3I4R5FUN_kxQ-10">
          <mxGeometry relative="1" as="geometry" />
        </mxCell>
        <mxCell id="zPSNQGfP3I4R5FUN_kxQ-13" style="edgeStyle=orthogonalEdgeStyle;rounded=0;orthogonalLoop=1;jettySize=auto;html=1;entryX=0;entryY=0.5;entryDx=0;entryDy=0;" edge="1" parent="1" source="zPSNQGfP3I4R5FUN_kxQ-2" target="zPSNQGfP3I4R5FUN_kxQ-4">
          <mxGeometry relative="1" as="geometry" />
        </mxCell>
        <mxCell id="zPSNQGfP3I4R5FUN_kxQ-15" style="edgeStyle=orthogonalEdgeStyle;rounded=0;orthogonalLoop=1;jettySize=auto;html=1;entryX=0;entryY=0.5;entryDx=0;entryDy=0;" edge="1" parent="1" source="zPSNQGfP3I4R5FUN_kxQ-2" target="zPSNQGfP3I4R5FUN_kxQ-5">
          <mxGeometry relative="1" as="geometry" />
        </mxCell>
        <mxCell id="zPSNQGfP3I4R5FUN_kxQ-2" value="&lt;div&gt;Employee&lt;/div&gt;" style="shape=umlActor;verticalLabelPosition=bottom;verticalAlign=top;html=1;outlineConnect=0;" vertex="1" parent="1">
          <mxGeometry x="80" y="195" width="30" height="60" as="geometry" />
        </mxCell>
        <mxCell id="zPSNQGfP3I4R5FUN_kxQ-3" value="Authentification" style="ellipse;whiteSpace=wrap;html=1;" vertex="1" parent="1">
          <mxGeometry x="240" y="20" width="120" height="80" as="geometry" />
        </mxCell>
        <mxCell id="zPSNQGfP3I4R5FUN_kxQ-4" value="UpdateStock" style="ellipse;whiteSpace=wrap;html=1;" vertex="1" parent="1">
          <mxGeometry x="320" y="140" width="120" height="50" as="geometry" />
        </mxCell>
        <mxCell id="zPSNQGfP3I4R5FUN_kxQ-5" value="GenerateReport" style="ellipse;whiteSpace=wrap;html=1;" vertex="1" parent="1">
          <mxGeometry x="320" y="200" width="120" height="50" as="geometry" />
        </mxCell>
        <mxCell id="zPSNQGfP3I4R5FUN_kxQ-6" value="PlaceOrder" style="ellipse;whiteSpace=wrap;html=1;" vertex="1" parent="1">
          <mxGeometry x="260" y="420" width="120" height="80" as="geometry" />
        </mxCell>
        <mxCell id="zPSNQGfP3I4R5FUN_kxQ-9" style="edgeStyle=orthogonalEdgeStyle;rounded=0;orthogonalLoop=1;jettySize=auto;html=1;exitX=0.5;exitY=0.5;exitDx=0;exitDy=0;exitPerimeter=0;entryX=0;entryY=0.5;entryDx=0;entryDy=0;" edge="1" parent="1" source="zPSNQGfP3I4R5FUN_kxQ-7" target="zPSNQGfP3I4R5FUN_kxQ-6">
          <mxGeometry relative="1" as="geometry" />
        </mxCell>
        <mxCell id="zPSNQGfP3I4R5FUN_kxQ-7" value="Client" style="shape=umlActor;verticalLabelPosition=bottom;verticalAlign=top;html=1;outlineConnect=0;" vertex="1" parent="1">
          <mxGeometry x="100" y="430" width="30" height="60" as="geometry" />
        </mxCell>
        <mxCell id="zPSNQGfP3I4R5FUN_kxQ-10" value="ManageInventory" style="ellipse;whiteSpace=wrap;html=1;" vertex="1" parent="1">
          <mxGeometry x="320" y="260" width="120" height="50" as="geometry" />
        </mxCell>
      </root>
    </mxGraphModel>
  </diagram>
</mxfile>
